# xmcd
#
# Track frame offsets:
#	150
#	15079
#	41008
#	66005
#
# Disc length: 1197 seconds
#
# Revision: 1
# Processed by: cddbd v1.5.2PL0 Copyright (c) Steve Scherf et al.
# Submitted via: audiograbber 1.83.01
#
DISCID=2404ab04
DTITLE=Kitachi - Boost Dem [CD Single)
DYEAR=1999
DGENRE=Pop
TTITLE0=Boost Dem (Radio Edit)
TTITLE1=Boost Dem (V:Recordings Remix)
TTITLE2=Boost Dem (Doolally Remix)
TTITLE3=Boost Dem (Original Mix)
EXTD=
EXTT0=
EXTT1=
EXTT2=
EXTT3=
PLAYORDER=
